<svg viewBox="0 0 110 110" xmlns="http://www.w3.org/2000/svg" xml:space="preserve" style="fill-rule:evenodd;clip-rule:evenodd;stroke-linecap:round;stroke-linejoin:round;stroke-miterlimit:1.5"><path d="M55 5.19C27.509 5.19 5.19 27.509 5.19 55c0 27.491 22.319 49.811 49.81 49.811 27.491 0 49.81-22.32 49.81-49.811S82.491 5.19 55 5.19Zm0 3c25.835 0 46.81 20.975 46.81 46.81 0 25.836-20.975 46.811-46.81 46.811S8.19 80.836 8.19 55C8.19 29.165 29.165 8.19 55 8.19Z"/><path d="m26 83 51.374-51.374" style="fill:none;stroke:#000;stroke-width:6.61px" transform="matrix(.68128 0 0 .68128 19.787 15.953)"/><path d="m26 83 51.374-51.374" style="fill:none;stroke:#000;stroke-width:6.61px" transform="matrix(0 .68128 -.68128 0 94.047 19.787)"/></svg>