<svg viewBox="0 0 110 110" xmlns="http://www.w3.org/2000/svg" xml:space="preserve" style="fill-rule:evenodd;clip-rule:evenodd;stroke-linejoin:round;stroke-miterlimit:2;fill-opacity:.4"><path d="M55 5.19C27.509 5.19 5.19 27.509 5.19 55c0 27.491 22.319 49.811 49.81 49.811 27.491 0 49.81-22.32 49.81-49.811S82.491 5.19 55 5.19Zm0 3c25.835 0 46.81 20.975 46.81 46.81 0 25.836-20.975 46.811-46.81 46.811S8.19 80.836 8.19 55C8.19 29.165 29.165 8.19 55 8.19Z"/><path d="M52.5 49.734v34.831a2.5 2.5 0 0 0 5 0V49.734a2.5 2.5 0 0 0-5 0Z"/><circle cx="466.5" cy="94.5" r="1.5" transform="matrix(2.43412 0 0 6.10341 -1080.518 -545.348)"/><path d="M466.5 92.754c-.416 0-.832.085-1.178.264-.537.278-.938.836-.938 1.482s.401 1.204.938 1.482c.346.179.762.264 1.178.264.416 0 .832-.085 1.178-.264.537-.278.938-.836.938-1.482s-.401-1.204-.938-1.482a2.592 2.592 0 0 0-1.178-.264Zm0 .492c.048 0 .081.018.123.035.08.033.153.076.221.126.336.246.54.645.54 1.093 0 .448-.204.847-.54 1.093-.068.05-.141.093-.221.126-.042.017-.075.035-.123.035s-.081-.018-.123-.035a1.045 1.045 0 0 1-.221-.126 1.34 1.34 0 0 1-.54-1.093c0-.448.204-.847.54-1.093.068-.05.141-.093.221-.126.042-.017.075-.035.123-.035Z" style="fill:none" transform="matrix(2.43412 0 0 6.10341 -1080.518 -545.348)"/></svg>