<svg viewBox="0 0 110 110" xmlns="http://www.w3.org/2000/svg" xml:space="preserve" style="fill-rule:evenodd;clip-rule:evenodd;stroke-linecap:round;stroke-linejoin:round;stroke-miterlimit:1.5"><path d="M500.5 266C440.577 266 392 314.577 392 374.5" style="fill:none;stroke:#000;stroke-width:5.98px" transform="rotate(30 387.374 -248.668) scale(.50209)"/><path d="M500.5 266C440.577 266 392 314.577 392 374.5" style="fill:none;stroke:#000;stroke-width:6.47px" transform="rotate(120 176.045 64.134) scale(.46354)"/><path d="M500.5 266C440.577 266 392 314.577 392 374.5" style="fill:none;stroke:#000;stroke-width:7.13px" transform="scale(-.4205) rotate(30 1148.066 -1072.62)"/><path d="M500.5 266C440.577 266 392 314.577 392 374.5" style="fill:none;stroke:#000;stroke-width:7.58px" transform="rotate(-60 52.81 228.461) scale(.39581)"/><path d="M500.5 266C440.577 266 392 314.577 392 374.5" style="fill:none;stroke:#000;stroke-width:8.78px" transform="scale(.34163) rotate(30 698.125 -381.565)"/><circle cx="466.5" cy="94.5" r="1.5" transform="matrix(2.62912 0 0 6.59235 -1187.22 -570.883)"/><circle cx="466.5" cy="94.5" r="1.5" transform="matrix(2.62912 0 0 6.59235 -1149.41 -570.883)"/></svg>