<svg viewBox="0 0 110 110" xmlns="http://www.w3.org/2000/svg" xml:space="preserve" style="fill-rule:evenodd;clip-rule:evenodd;stroke-linejoin:round;stroke-miterlimit:2"><circle cx="55" cy="55" r="49.81" style="fill:#579bff"/><path d="M711.584 430.844c-8.607 3.366-14.702 11.74-14.702 21.538 0 12.759 10.359 23.118 23.118 23.118 12.768 0 23.118-10.35 23.118-23.118a2.5 2.5 0 0 0-5 0c0 10.006-8.112 18.118-18.118 18.118-10 0-18.118-8.118-18.118-18.118 0-8.353 5.653-15.385 13.341-17.481l-2.871 4.82a2.5 2.5 0 0 0 4.296 2.558l5.482-9.206c.041-.066.079-.135.114-.207l.011-.022c.032-.067.061-.135.086-.203l.012-.032.007-.02c.129-.367.166-.746.124-1.111l-.003-.024a2.498 2.498 0 0 0-.476-1.183l-.016-.021a2.474 2.474 0 0 0-.89-.731l-.021-.01-.029-.014-.055-.025-.01-.004-10.99-4.76a2.501 2.501 0 0 0-3.288 1.3 2.501 2.501 0 0 0 1.3 3.288l3.578 1.55Z" style="fill:#fff" transform="translate(-665 -395)"/></svg>