<svg viewBox="0 0 110 110" xmlns="http://www.w3.org/2000/svg" xml:space="preserve" style="fill-rule:evenodd;clip-rule:evenodd;stroke-linejoin:round;stroke-miterlimit:2"><circle cx="55" cy="55" r="49.81"/><path d="M719.138 430.237c-.107.04-.213.087-.316.142l-.009.005a2.463 2.463 0 0 0-.746.615l-9.406 11.088a2.501 2.501 0 0 0 3.812 3.235l5.027-5.926v28.02c0 1.379 1.12 2.5 2.5 2.5s2.5-1.121 2.5-2.5v-28.02l5.027 5.926a2.501 2.501 0 0 0 3.812-3.235l-9.406-11.088a2.463 2.463 0 0 0-.746-.615l-.009-.005a2.49 2.49 0 0 0-2.04-.142Z" style="fill:#fff" transform="translate(-665 -395)"/></svg>
